# xmcd
# Track frame offsets:
# 150
# 15605
# 29625
# 42427
# 55062
# 72020
# 88147
# 103972
# 120637
# 133845
# 150472
# 166647
# 178590
# 195145
# 208092
# 224272
# 236902
# 249667
#
# Disc length: 3514 seconds
# Revision: 0
# Processed by: cddbd v1.5PL3 Copyright (c) Steve Scherf et al.
# Submitted via: VisiTrax 2.9.9.209 - For more info visit www.synapsa.com
#
DISCID=fc0db812
DTITLE=NASHVILLE LINE DANCE CONNECTION - COUNTRY LINE DANCING
DYEAR=1996
DGENRE=COUNTRY
TTITLE0=ACHY BREAKY HEART
TTITLE1=BOOT SCOOTING BOOGIE
TTITLE2=DOWN AT ST DOMAS WALKERS
TTITLE3=WINK
TTITLE4=LIVING ON LOVE
TTITLE5=GOD BLESS TEXAS
TTITLE6=FAST AS YOU GO
TTITLE7=KICK A LITTLE
TTITLE8=LOVEBUG
TTITLE9=AIN,T GOING DOWN
TTITLE10=AMERICAN HONKY TONK BAR ASSOCIATION
TTITLE11=HOLDIN HEAVEN
TTITLE12=I FEEL LUCKY
TTITLE13=DOWN ON THE FARM
TTITLE14=BABY LIKES TO ROCK IT
TTITLE15=I TRY NOT TO THINK ABOUT ELVIS
TTITLE16=XXXs AND OOOs
TTITLE17=HONKY TONK BLUES
EXTD=
EXTT0=
EXTT1=
EXTT2=
EXTT3=
EXTT4=
EXTT5=
EXTT6=
EXTT7=
EXTT8=
EXTT9=
EXTT10=
EXTT11=
EXTT12=
EXTT13=
EXTT14=
EXTT15=
EXTT16=
EXTT17=
PLAYORDER=
